<?xml version="1.0" encoding="utf-8"?>
<!-- Generator: Adobe Illustrator 21.0.0, SVG Export Plug-In . SVG Version: 6.00 Build 0)  -->
<svg version="1.1" id="Capa_1" xmlns="http://www.w3.org/2000/svg" xmlns:xlink="http://www.w3.org/1999/xlink" x="0px" y="0px"
	 viewBox="0 0 512 512" style="enable-background:new 0 0 512 512;" xml:space="preserve">
<style type="text/css">
	.st0{fill:#FFFFFF;}
	.st1{fill:#FF9900;}
</style>
<path class="st0" d="M145.6,214.6c0,6.2,0.7,11.3,1.9,15c1.3,3.7,3,7.7,5.4,12.1c0.8,1.3,1.2,2.7,1.2,3.9c0,1.7-1,3.4-3.2,5
	l-10.6,7.1c-1.5,1-3,1.5-4.4,1.5c-1.7,0-3.4-0.8-5-2.4c-2.4-2.5-4.4-5.2-6.1-7.9c-1.7-2.9-3.4-6.1-5.2-9.9
	c-13.1,15.5-29.6,23.2-49.5,23.2c-14.1,0-25.4-4-33.7-12.1c-8.2-8.1-12.5-18.8-12.5-32.3c0-14.3,5-25.9,15.3-34.7S63.1,170,80.4,170
	c5.7,0,11.6,0.5,17.8,1.3c6.2,0.8,12.6,2.2,19.4,3.7v-12.3c0-12.8-2.7-21.7-7.9-26.9c-5.4-5.2-14.5-7.7-27.4-7.7
	c-5.9,0-11.9,0.7-18.2,2.2c-6.2,1.5-12.3,3.4-18.2,5.7c-2.7,1.2-4.7,1.9-5.9,2.2s-2,0.5-2.7,0.5c-2.4,0-3.5-1.7-3.5-5.2v-8.2
	c0-2.7,0.3-4.7,1.2-5.9c0.8-1.2,2.4-2.4,4.7-3.5c5.9-3,13-5.6,21.2-7.6c8.2-2.2,17-3.2,26.3-3.2c20,0,34.7,4.5,44.1,13.6
	c9.3,9.1,14,22.9,14,41.4v54.5L145.6,214.6L145.6,214.6z M77.3,240.2c5.6,0,11.3-1,17.3-3c6.1-2,11.4-5.7,16-10.8
	c2.7-3.2,4.7-6.7,5.7-10.8c1-4,1.7-8.9,1.7-14.6v-7.1c-4.9-1.2-10.1-2.2-15.5-2.9s-10.6-1-15.8-1c-11.3,0-19.5,2.2-25.1,6.7
	s-8.2,10.9-8.2,19.4c0,7.9,2,13.8,6.2,17.8C63.6,238.2,69.5,240.2,77.3,240.2z M212.4,258.4c-3,0-5-0.5-6.4-1.7
	c-1.3-1-2.5-3.4-3.5-6.6L162.9,120c-1-3.4-1.5-5.6-1.5-6.7c0-2.7,1.3-4.2,4-4.2h16.5c3.2,0,5.4,0.5,6.6,1.7c1.3,1,2.4,3.4,3.4,6.6
	l28.3,111.4l26.3-111.4c0.8-3.4,1.9-5.6,3.2-6.6s3.7-1.7,6.7-1.7h13.5c3.2,0,5.4,0.5,6.7,1.7c1.3,1,2.5,3.4,3.2,6.6l26.6,112.8
	l29.1-112.8c1-3.4,2.2-5.6,3.4-6.6c1.3-1,3.5-1.7,6.6-1.7H361c2.7,0,4.2,1.3,4.2,4.2c0,0.8-0.2,1.7-0.3,2.7c-0.2,1-0.5,2.4-1.2,4.2
	l-40.6,130.1c-1,3.4-2.2,5.6-3.5,6.6s-3.5,1.7-6.4,1.7h-14.5c-3.2,0-5.4-0.5-6.7-1.7c-1.3-1.2-2.5-3.4-3.2-6.7l-26.1-108.5
	l-25.9,108.4c-0.8,3.4-1.9,5.6-3.2,6.7c-1.3,1.2-3.7,1.7-6.7,1.7h-14.5V258.4z M428.7,262.9c-8.8,0-17.5-1-25.9-3s-15-4.2-19.4-6.7
	c-2.7-1.5-4.5-3.2-5.2-4.7s-1-3.2-1-4.7v-8.6c0-3.5,1.3-5.2,3.9-5.2c1,0,2,0.2,3,0.5s2.5,1,4.2,1.7c5.7,2.5,11.9,4.5,18.5,5.9
	c6.7,1.3,13.3,2,20,2c10.6,0,18.8-1.9,24.6-5.6c5.7-3.7,8.8-9.1,8.8-16c0-4.7-1.5-8.6-4.5-11.8s-8.8-6.1-17-8.8l-24.4-7.6
	c-12.3-3.9-21.4-9.6-26.9-17.2c-5.6-7.4-8.4-15.7-8.4-24.4c0-7.1,1.5-13.3,4.5-18.7c3-5.4,7.1-10.1,12.1-13.8
	c5-3.9,10.8-6.7,17.5-8.8c6.7-2,13.8-2.9,21.2-2.9c3.7,0,7.6,0.2,11.3,0.7c3.9,0.5,7.4,1.2,10.9,1.9c3.4,0.8,6.6,1.7,9.6,2.7
	s5.4,2,7.1,3c2.4,1.3,4,2.7,5,4.2c1,1.3,1.5,3.2,1.5,5.6v7.9c0,3.5-1.3,5.4-3.9,5.4c-1.3,0-3.5-0.7-6.4-2
	c-9.6-4.4-20.4-6.6-32.3-6.6c-9.6,0-17.2,1.5-22.4,4.7s-7.9,8.1-7.9,15c0,4.7,1.7,8.8,5,11.9c3.4,3.2,9.6,6.4,18.5,9.3l23.9,7.6
	c12.1,3.9,20.9,9.3,26.1,16.2s7.7,14.8,7.7,23.6c0,7.2-1.5,13.8-4.4,19.5c-3,5.7-7.1,10.8-12.3,14.8c-5.2,4.2-11.4,7.2-18.7,9.4
	C445.2,261.7,437.2,262.9,428.7,262.9z"/>
<g>
	<path class="st1" d="M460.5,344.7c-55.4,40.9-135.8,62.6-205,62.6c-96.9,0-184.3-35.8-250.2-95.4c-5.2-4.7-0.5-11.1,5.7-7.4
		C82.4,345.9,170.4,371,261.4,371c61.4,0,128.9-12.8,191-39C461.6,327.7,469.6,338,460.5,344.7z"/>
	<path class="st1" d="M483.5,318.4c-7.1-9.1-46.8-4.4-64.8-2.2c-5.4,0.7-6.2-4-1.3-7.6c31.6-22.2,83.6-15.8,89.7-8.4
		c6.1,7.6-1.7,59.6-31.3,84.5c-4.5,3.9-8.9,1.9-6.9-3.2C475.6,364.9,490.6,327.4,483.5,318.4z"/>
</g>
</svg>
