<?xml version="1.0" encoding="utf-8"?>
<!-- Generator: Adobe Illustrator 21.0.0, SVG Export Plug-In . SVG Version: 6.00 Build 0)  -->
<svg version="1.1" xmlns="http://www.w3.org/2000/svg" xmlns:xlink="http://www.w3.org/1999/xlink" x="0px" y="0px"
	 viewBox="0 0 512 512" style="enable-background:new 0 0 512 512;" xml:space="preserve">
<style type="text/css">
	.st0{fill:#FFFFFF;}
	.st1{fill:#5D3F87;}
</style>
<g id="Layer_2">
	<rect class="st0" width="512" height="512"/>
</g>
<g id="Capa_1">
	<g>
		<g>
			<path class="st1" d="M256,0H0v512h512V0H256z M295,101.7c18.4,0.1,36.6,2.3,53.8,9.6c24.4,10.4,36.6,29.5,39.1,55.4
				c1,10.7,0.8,21.4-2,32c-4.9,18.9-17.4,31.5-33.9,40.7c-1.3,0.7-2.6,1.5-3.8,2.3c-0.2,0.1-0.2,0.5-0.4,0.8
				c0.8,1.3,2.2,1.4,3.4,1.8c30.8,10.4,47.3,32.3,51.1,64.2c2.4,19.9,0.1,39-10.4,56.6c-12.1,20.4-30.8,32-52.8,38.8
				c-14.6,4.5-29.7,6.5-45,6.4c-47.7-0.1-95.5,0-143.2,0c-6.2,0-6.2,0-6.2-6.1c0-98.8,0-197.5,0-296.3c0-6.2,0-6.2,6.1-6.2
				C198.9,101.6,246.9,101.5,295,101.7z"/>
			<path class="st1" d="M288.3,272.4c-23.6-0.1-47.1-0.1-70.7-0.1c-5.6,0-5.9,0.4-6,6.2c0,12.2,0,24.4,0,36.7c0,12.4,0,24.7,0,37.1
				c0,5.7,0.4,6.1,6.1,6.1c21.6,0,43.2,0,64.8,0c6.7,0,13.4-0.6,20-1.8c17.9-3.2,29.4-13.8,32.4-29.6c1.5-7.9,1.1-15.7-0.5-23.5
				c-2.5-11.9-9-20.5-20.2-25.6C306,274.1,297.3,272.5,288.3,272.4z"/>
			<path class="st1" d="M211.7,158.9c0.1,20.9,0.1,41.8,0,62.6c0,4,1.5,5.5,5.5,5.4c11.2-0.2,22.4-0.1,33.6-0.1l0,0
				c11,0,22.1,0.5,33.1-0.1c19.9-1,38.1-8.9,39.5-33.9c1-17.5-5.8-30.7-23.7-36.3c-7.3-2.3-15-2.9-22.5-3c-20-0.3-40,0-60-0.2
				C213,153.3,211.6,154.9,211.7,158.9z"/>
		</g>
	</g>
</g>
</svg>
