<?xml version="1.0" encoding="utf-8"?>
<!-- Generator: Adobe Illustrator 21.0.0, SVG Export Plug-In . SVG Version: 6.00 Build 0)  -->
<svg version="1.1" id="Capa_1" xmlns="http://www.w3.org/2000/svg" xmlns:xlink="http://www.w3.org/1999/xlink" x="0px" y="0px"
	 viewBox="0 0 512 512" style="enable-background:new 0 0 512 512;" xml:space="preserve">
<style type="text/css">
	.st0{fill:#34AADA;}
</style>
<g>
	<path class="st0" d="M64.7,256c19.8,5.4,29.4,15.8,29.4,41.5v98.9c0,22.6,12.8,35.2,39.6,35.2h13.4v35.7h-23.5
		c-53.5,0-80.8-23-80.8-66.8V296.6c0-15.8-9.1-22.6-24.1-22.6H0v-36.1h18.7c15,0,24.1-6.8,24.1-22.6V111.5
		c0-43.8,27.3-66.8,80.8-66.8h23.5v35.7h-13.4c-26.8,0-39.6,12.6-39.6,35.2v98.9C94.2,240.2,84.5,250.6,64.7,256z"/>
	<path class="st0" d="M512,237.9V274h-18.2c-14.4,0-23.5,6.8-23.5,22.6v103.8c0,43.8-27.8,66.8-81.3,66.8h-23.5v-35.7h12.8
		c27.8,0,40.7-12.6,40.7-35.2v-98.9c0-25.7,9.1-36.1,28.9-41.5c-19.8-5.4-28.9-15.8-28.9-41.5v-98.9c0-22.6-12.8-35.2-40.7-35.2
		h-12.8V44.7H389c53.5,0,81.3,23,81.3,66.8v103.8c0,15.8,9.1,22.6,23.5,22.6L512,237.9L512,237.9z"/>
</g>
</svg>
