<?xml version="1.0" encoding="utf-8"?>
<!-- Generator: Adobe Illustrator 21.0.0, SVG Export Plug-In . SVG Version: 6.00 Build 0)  -->
<svg version="1.1" id="Layer_1" xmlns="http://www.w3.org/2000/svg" xmlns:xlink="http://www.w3.org/1999/xlink" x="0px" y="0px"
	 viewBox="0 0 512 512" style="enable-background:new 0 0 512 512;" xml:space="preserve">
<style type="text/css">
	.st0{fill:#EA6148;}
	.st1{fill:#E8EDEE;}
	.st2{fill:#B0B6BB;}
	.st3{fill:#38454F;}
	.st4{fill:#FFFFFF;}
	.st5{fill:#FCEE21;}
</style>
<circle class="st0" cx="256" cy="256" r="256"/>
<path class="st1" d="M323.6,408H188.4c0-12.4,10.1-22.5,22.5-22.5H301C313.5,385.5,323.6,395.6,323.6,408"/>
<polygon class="st2" points="295.4,385.5 216.6,385.5 227.9,340.4 284.1,340.4 "/>
<path class="st3" d="M419.3,295.4H92.7V123.7c0-10.9,8.8-19.7,19.7-19.7h287.1c10.9,0,19.7,8.8,19.7,19.7L419.3,295.4L419.3,295.4z"
	/>
<path class="st1" d="M399.6,340.4H112.4c-10.9,0-19.7-8.8-19.7-19.7v-25.3h326.5v25.3C419.3,331.6,410.4,340.4,399.6,340.4"/>
<g>
	<path class="st4" d="M368.6,272.9h-84.4c-3.1,0-5.6-2.5-5.6-5.6s2.5-5.6,5.6-5.6h84.4c3.1,0,5.6,2.5,5.6,5.6
		C374.2,270.4,371.7,272.9,368.6,272.9"/>
	<path class="st4" d="M199.7,239.1h-56.3c-3.1,0-5.6-2.5-5.6-5.6s2.5-5.6,5.6-5.6h56.3c3.1,0,5.6,2.5,5.6,5.6
		S202.8,239.1,199.7,239.1"/>
	<path class="st4" d="M340.4,239.1H256c-3.1,0-5.6-2.5-5.6-5.6s2.5-5.6,5.6-5.6h84.4c3.1,0,5.6,2.5,5.6,5.6
		C346.1,236.6,343.6,239.1,340.4,239.1"/>
	<path class="st4" d="M227.9,239.1c-0.7,0-1.5-0.2-2.1-0.5c-0.7-0.3-1.3-0.7-1.9-1.2c-1-1.1-1.6-2.5-1.6-4s0.6-2.9,1.6-4
		c0.6-0.5,1.1-0.9,1.9-1.2c2-0.8,4.6-0.4,6.1,1.2c1,1.1,1.6,2.5,1.6,4c0,1.5-0.6,2.9-1.6,4C230.8,238.5,229.3,239.1,227.9,239.1"/>
	<path class="st4" d="M256,272.9h-84.4c-3.1,0-5.6-2.5-5.6-5.6s2.5-5.6,5.6-5.6H256c3.1,0,5.6,2.5,5.6,5.6
		C261.6,270.4,259.1,272.9,256,272.9"/>
	<path class="st4" d="M143.4,272.9c-0.7,0-1.5-0.2-2.1-0.5c-0.7-0.3-1.3-0.7-1.9-1.2c-1-1.1-1.6-2.5-1.6-4c0-0.7,0.2-1.5,0.5-2.1
		c0.3-0.7,0.7-1.3,1.2-1.9c1.4-1.3,3.3-1.9,5.1-1.5c0.4,0.1,0.7,0.2,1.1,0.3c0.3,0.1,0.7,0.3,1,0.5c0.3,0.2,0.6,0.5,0.9,0.7
		c0.5,0.6,0.9,1.1,1.2,1.9c0.3,0.7,0.5,1.4,0.5,2.1c0,1.5-0.6,2.9-1.6,4c-0.3,0.2-0.6,0.5-0.9,0.7c-0.3,0.2-0.6,0.4-1,0.5
		c-0.3,0.2-0.7,0.3-1.1,0.3C144.1,272.8,143.7,272.9,143.4,272.9"/>
	<path class="st4" d="M368.6,239.1c-0.3,0-0.7-0.1-1.1-0.1c-0.4-0.1-0.7-0.2-1.1-0.3c-0.3-0.1-0.7-0.3-1-0.5
		c-0.3-0.2-0.6-0.5-0.8-0.7c-1-1.1-1.6-2.5-1.6-4c0-1.5,0.6-2.9,1.6-4l0.8-0.7c0.3-0.2,0.7-0.4,1-0.5c0.3-0.2,0.7-0.3,1.1-0.3
		c1.8-0.4,3.8,0.2,5.1,1.5c0.2,0.3,0.5,0.6,0.7,0.9c0.2,0.3,0.4,0.6,0.5,1c0.2,0.3,0.3,0.7,0.3,1.1c0.1,0.3,0.1,0.7,0.1,1.1
		c0,0.3-0.1,0.7-0.1,1.1c-0.1,0.3-0.2,0.7-0.3,1c-0.1,0.3-0.3,0.7-0.5,1c-0.2,0.3-0.5,0.6-0.7,0.8c-0.3,0.2-0.6,0.5-0.8,0.7
		c-0.3,0.2-0.7,0.4-1,0.5c-0.3,0.2-0.7,0.3-1.1,0.3C369.3,239.1,368.9,239.1,368.6,239.1"/>
	<path class="st4" d="M368.6,171.6h-84.4c-3.1,0-5.6-2.5-5.6-5.6s2.5-5.6,5.6-5.6h84.4c3.1,0,5.6,2.5,5.6,5.6
		S371.7,171.6,368.6,171.6"/>
	<path class="st4" d="M368.6,205.3h-56.3c-3.1,0-5.6-2.5-5.6-5.6s2.5-5.6,5.6-5.6h56.3c3.1,0,5.6,2.5,5.6,5.6
		S371.7,205.3,368.6,205.3"/>
	<path class="st4" d="M267.3,205.3H256c-3.1,0-5.6-2.5-5.6-5.6s2.5-5.6,5.6-5.6h11.3c3.1,0,5.6,2.5,5.6,5.6S270.4,205.3,267.3,205.3
		"/>
	<path class="st4" d="M340.4,137.8H256c-3.1,0-5.6-2.5-5.6-5.6c0-3.1,2.5-5.6,5.6-5.6h84.4c3.1,0,5.6,2.5,5.6,5.6
		C346.1,135.3,343.6,137.8,340.4,137.8"/>
	<path class="st4" d="M368.6,137.8c-0.3,0-0.7-0.1-1.1-0.1c-0.4-0.1-0.7-0.2-1.1-0.3c-0.3-0.1-0.7-0.3-1-0.5
		c-0.3-0.2-0.6-0.5-0.8-0.7c-1-1.1-1.6-2.5-1.6-4c0-1.5,0.6-2.9,1.6-4l0.8-0.7c0.3-0.2,0.7-0.4,1-0.5c0.3-0.2,0.7-0.3,1.1-0.3
		c1.8-0.4,3.8,0.2,5.1,1.5c0.2,0.3,0.5,0.6,0.7,0.9c0.2,0.3,0.4,0.6,0.5,1c0.2,0.3,0.3,0.7,0.3,1.1c0.1,0.3,0.1,0.7,0.1,1.1
		s-0.1,0.7-0.1,1.1c-0.1,0.3-0.2,0.7-0.3,1c-0.1,0.3-0.3,0.7-0.5,1c-0.2,0.3-0.5,0.6-0.7,0.8c-0.3,0.2-0.6,0.5-0.8,0.7
		c-0.3,0.2-0.7,0.4-1,0.5c-0.3,0.2-0.7,0.3-1.1,0.3C369.3,137.7,368.9,137.8,368.6,137.8"/>
	<path class="st4" d="M261.6,171.6c-1.5,0-2.9-0.6-4-1.6c-0.5-0.6-0.9-1.2-1.2-1.9c-0.3-0.7-0.5-1.4-0.5-2.1c0-0.7,0.2-1.5,0.5-2.1
		c0.3-0.7,0.7-1.3,1.2-1.9c1.3-1.3,3.3-1.9,5.1-1.5c0.4,0.1,0.7,0.2,1.1,0.3c0.3,0.1,0.7,0.3,1,0.5c0.3,0.2,0.6,0.5,0.8,0.7
		c0.6,0.6,1,1.2,1.2,1.9s0.5,1.4,0.5,2.1c0,0.7-0.2,1.5-0.5,2.1c-0.3,0.7-0.7,1.3-1.2,1.9c-0.2,0.2-0.5,0.5-0.8,0.7
		c-0.3,0.2-0.6,0.4-1,0.5c-0.3,0.2-0.7,0.3-1.1,0.3C262.4,171.5,262,171.6,261.6,171.6"/>
	<path class="st4" d="M289.8,205.3c-1.5,0-2.9-0.6-4-1.6c-1-1.1-1.6-2.5-1.6-4c0-1.5,0.6-2.9,1.6-4c2.1-2.1,5.9-2.1,8,0
		c1,1.1,1.6,2.5,1.6,4c0,0.4-0.1,0.7-0.1,1.1c-0.1,0.3-0.2,0.7-0.3,1c-0.1,0.3-0.3,0.7-0.5,1c-0.2,0.3-0.5,0.6-0.7,0.8
		C292.7,204.7,291.3,205.3,289.8,205.3"/>
</g>
<polygon class="st5" points="143.4,205.3 222.2,205.3 222.2,126.5 143.4,126.5 "/>
</svg>
