<?xml version="1.0" encoding="utf-8"?>
<!-- Generator: Adobe Illustrator 21.0.0, SVG Export Plug-In . SVG Version: 6.00 Build 0)  -->
<svg version="1.1" id="Layer_1" xmlns="http://www.w3.org/2000/svg" xmlns:xlink="http://www.w3.org/1999/xlink" x="0px" y="0px"
	 viewBox="0 0 512 512" style="enable-background:new 0 0 512 512;" xml:space="preserve">
<style type="text/css">
	.st0{fill:#F34F29;}
</style>
<g>
	<g>
		<path class="st0" d="M497.5,233.6L278.4,14.5c-12.6-12.6-33.1-12.6-45.7,0L187.1,60l57.7,57.7c13.4-4.5,28.8-1.5,39.5,9.2
			c10.8,10.8,13.8,26.3,9.1,39.7l55.6,55.6c13.5-4.6,29-1.6,39.7,9.1c15,15,15,39.4,0,54.4c-15,15-39.4,15-54.4,0
			c-11.3-11.3-14.1-27.9-8.4-41.8l-51.9-51.9v136.6c3.7,1.8,7.1,4.2,10.2,7.3c15,15,15,39.4,0,54.4c-15,15-39.4,15-54.4,0
			c-15-15-15-39.4,0-54.4c3.7-3.7,8-6.5,12.6-8.4V189.7c-4.6-1.9-8.9-4.7-12.6-8.4c-11.4-11.4-14.1-28.1-8.3-42.1l-56.9-56.9
			L14.5,232.6c-12.6,12.6-12.6,33.1,0,45.7l219.2,219.2c12.6,12.6,33.1,12.6,45.7,0l218.2-218.2
			C510.2,266.7,510.2,246.3,497.5,233.6z"/>
	</g>
</g>
</svg>
