<?xml version="1.0" encoding="utf-8"?>
<!-- Generator: Adobe Illustrator 21.0.0, SVG Export Plug-In . SVG Version: 6.00 Build 0)  -->
<svg version="1.1" id="Capa_1" xmlns="http://www.w3.org/2000/svg" xmlns:xlink="http://www.w3.org/1999/xlink" x="0px" y="0px"
	 viewBox="0 0 512 512" style="enable-background:new 0 0 512 512;" xml:space="preserve">
<style type="text/css">
	.st0{fill:#EA4335;}
	.st1{fill:#4285F4;}
	.st2{fill:#34A853;}
	.st3{fill:#FBBC05;}
</style>
<g>
	<path class="st0" d="M323.4,165.5h15.3l43.5-43.5l2.1-18.5c-81-71.5-204.6-63.8-276,17.2C88.3,143.2,74,170,66.1,198.9
		c4.8-2,10.2-2.3,15.3-0.9l87-14.4c0,0,4.4-7.3,6.7-6.9c38.7-42.5,103.8-47.5,148.6-11.3H323.4z"/>
	<path class="st1" d="M444.1,198.9c-10-36.8-30.5-70-59.1-95.3L324,164.7c25.8,21.1,40.5,52.8,39.8,86.1v10.8
		c30,0,54.4,24.3,54.4,54.4s-24.3,54.4-54.4,54.4H255.1l-10.8,11v65.2l10.8,10.8h108.7c78.1,0.6,141.9-62.2,142.5-140.3
		C506.6,269.8,483.3,225.4,444.1,198.9z"/>
	<path class="st2" d="M146.3,456.8H255v-87H146.3c-7.8,0-15.4-1.7-22.4-4.9l-15.3,4.7l-43.8,43.5l-3.8,15.3
		C85.5,446.9,115.5,456.9,146.3,456.8z"/>
	<path class="st3" d="M146.3,174.5c-78.1,0.5-141,64.1-140.5,142.2c0.3,43.6,20.6,84.6,55.2,111.2l63-63
		c-27.3-12.3-39.5-44.6-27.2-71.9s44.6-39.5,71.9-27.2c12,5.4,21.7,15.1,27.2,27.2l63-63C232.1,194.8,190.4,174.3,146.3,174.5z"/>
</g>
</svg>
