<?xml version="1.0" encoding="utf-8"?>
<!-- Generator: Adobe Illustrator 21.0.0, SVG Export Plug-In . SVG Version: 6.00 Build 0)  -->
<svg version="1.1" id="Capa_1" xmlns="http://www.w3.org/2000/svg" xmlns:xlink="http://www.w3.org/1999/xlink" x="0px" y="0px"
	 viewBox="0 0 512 512" style="enable-background:new 0 0 512 512;" xml:space="preserve">
<style type="text/css">
	.st0{fill:#FFAF10;}
	.st1{fill:#445EA0;}
	.st2{fill:#2E4C89;}
	.st3{fill:#293D7C;}
	.st4{fill:#1A2B63;}
	.st5{fill:#EEF6FF;}
	.st6{fill:#FF9518;}
	.st7{fill:#C3DDF4;}
	.st8{fill:#EF8318;}
	.st9{fill:#69CDFF;}
	.st10{fill:#5DC1D8;}
	.st11{fill:#28A5A5;}
	.st12{fill:#52BBEF;}
	.st13{fill:#1E99D6;}
</style>
<circle class="st0" cx="256" cy="256" r="256"/>
<g>
	<rect x="198.8" y="343.5" class="st1" width="75.9" height="32.4"/>
	<rect x="198.8" y="343.5" class="st2" width="13.9" height="32.4"/>
	<path class="st3" d="M310.2,392.8c0,1.9-1.6,3.5-3.5,3.5H166.9c-1.9,0-3.5-1.6-3.5-3.5v-14c0-1.9,1.6-3.5,3.5-3.5h139.8
		c1.9,0,3.5,1.6,3.5,3.5V392.8z"/>
	<path class="st4" d="M177.3,392.8v-14c0-1.9,1.6-3.5,3.5-3.5h-13.9c-1.9,0-3.5,1.6-3.5,3.5v14c0,1.9,1.6,3.5,3.5,3.5h13.9
		C178.9,396.3,177.3,394.8,177.3,392.8z"/>
	<path class="st3" d="M76.2,337.2c0,3.9,3.2,7,7,7h210.9v-47H76.2V337.2z"/>
	<path class="st4" d="M90.1,337.2v-40H76.2v40c0,3.9,3.2,7,7,7h13.9C93.3,344.2,90.1,341.1,90.1,337.2z"/>
	<path class="st1" d="M294.1,278.3c0-1.5,1.3-2.8,2.8-2.8h100.5V123.4c0-4.2-3.5-7.7-7.7-7.7H83.9c-4.2,0-7.7,3.5-7.7,7.7v174.5
		h217.9V278.3z"/>
	<path class="st5" d="M294.1,278.3c0-1.5,1.3-2.8,2.8-2.8h85.1V134.6c0-1.9-1.6-3.5-3.5-3.5H95.1c-1.9,0-3.5,1.6-3.5,3.5v144.3
		c0,1.9,1.6,3.5,3.5,3.5h198.9L294.1,278.3L294.1,278.3z"/>
	<circle class="st1" cx="236.8" cy="321.3" r="9.8"/>
	<path class="st0" d="M368.7,221.7c0,1.9-1.6,3.5-3.5,3.5H253.8c-1.9,0-3.5-1.6-3.5-3.5v-51.1c0-1.9,1.6-3.5,3.5-3.5h111.3
		c1.9,0,3.5,1.6,3.5,3.5L368.7,221.7L368.7,221.7z"/>
	<path class="st6" d="M264.3,221.7v-51.1c0-1.9,1.6-3.5,3.5-3.5h-13.9c-1.9,0-3.5,1.6-3.5,3.5v51.1c0,1.9,1.6,3.5,3.5,3.5h13.9
		C265.8,225.2,264.3,223.6,264.3,221.7z"/>
	<g>
		<path class="st7" d="M286.4,245.4h-30.3c-2.9,0-5.3-2.4-5.3-5.3s2.4-5.3,5.3-5.3h30.3c2.9,0,5.3,2.4,5.3,5.3
			S289.3,245.4,286.4,245.4z"/>
		<path class="st7" d="M286.4,261.4h-30.3c-2.9,0-5.3-2.4-5.3-5.3c0-2.9,2.4-5.3,5.3-5.3h30.3c2.9,0,5.3,2.4,5.3,5.3
			C291.7,259,289.3,261.4,286.4,261.4z"/>
		<path class="st7" d="M322.9,245.4h-22.5c-2.9,0-5.3-2.4-5.3-5.3s2.4-5.3,5.3-5.3h22.5c2.9,0,5.3,2.4,5.3,5.3
			S325.8,245.4,322.9,245.4z"/>
		<path class="st7" d="M322.9,261.4h-22.5c-2.9,0-5.3-2.4-5.3-5.3c0-2.9,2.4-5.3,5.3-5.3h22.5c2.9,0,5.3,2.4,5.3,5.3
			C328.2,259,325.8,261.4,322.9,261.4z"/>
		<path class="st7" d="M365.4,245.4h-28.7c-2.9,0-5.3-2.4-5.3-5.3s2.4-5.3,5.3-5.3h28.7c2.9,0,5.3,2.4,5.3,5.3
			S368.3,245.4,365.4,245.4z"/>
		<path class="st7" d="M365.4,261.4h-28.7c-2.9,0-5.3-2.4-5.3-5.3c0-2.9,2.4-5.3,5.3-5.3h28.7c2.9,0,5.3,2.4,5.3,5.3
			C370.7,259,368.3,261.4,365.4,261.4z"/>
	</g>
	<g>
		<path class="st8" d="M328.6,154.7c0,1.9-1.6,3.5-3.5,3.5h-7.7c-1.9,0-3.5-1.6-3.5-3.5V147c0-1.9,1.6-3.5,3.5-3.5h7.7
			c1.9,0,3.5,1.6,3.5,3.5V154.7z"/>
		<path class="st8" d="M348.3,154.7c0,1.9-1.6,3.5-3.5,3.5H337c-1.9,0-3.5-1.6-3.5-3.5V147c0-1.9,1.6-3.5,3.5-3.5h7.7
			c1.9,0,3.5,1.6,3.5,3.5V154.7z"/>
		<path class="st8" d="M368,154.7c0,1.9-1.6,3.5-3.5,3.5h-7.7c-1.9,0-3.5-1.6-3.5-3.5V147c0-1.9,1.6-3.5,3.5-3.5h7.7
			c1.9,0,3.5,1.6,3.5,3.5V154.7z"/>
	</g>
	<g>
		<path class="st9" d="M210.3,257.2h-6.3c-2.9,0-5.3-2.4-5.3-5.3c0-2.9,2.4-5.3,5.3-5.3h6.3c2.9,0,5.3,2.4,5.3,5.3
			C215.5,254.9,213.2,257.2,210.3,257.2z"/>
		<path class="st9" d="M186.4,257.2h-6.3c-2.9,0-5.3-2.4-5.3-5.3c0-2.9,2.4-5.3,5.3-5.3h6.3c2.9,0,5.3,2.4,5.3,5.3
			C191.6,254.9,189.3,257.2,186.4,257.2z"/>
		<path class="st9" d="M162.5,257.2h-6.3c-2.9,0-5.3-2.4-5.3-5.3c0-2.9,2.4-5.3,5.3-5.3h6.3c2.9,0,5.3,2.4,5.3,5.3
			C167.8,254.9,165.4,257.2,162.5,257.2z"/>
		<path class="st9" d="M138.6,257.2h-6.3c-2.9,0-5.3-2.4-5.3-5.3c0-2.9,2.4-5.3,5.3-5.3h6.3c2.9,0,5.3,2.4,5.3,5.3
			C143.9,254.9,141.5,257.2,138.6,257.2z"/>
		<path class="st9" d="M230.8,235.5c-2.9,0-5.3-2.4-5.3-5.3v-6.3c0-2.9,2.4-5.3,5.3-5.3s5.3,2.4,5.3,5.3v6.3
			C236.1,233.2,233.7,235.5,230.8,235.5z"/>
		<path class="st9" d="M230.8,211.7c-2.9,0-5.3-2.4-5.3-5.3v-6.3c0-2.9,2.4-5.3,5.3-5.3s5.3,2.4,5.3,5.3v6.3
			C236.1,209.3,233.7,211.7,230.8,211.7z"/>
		<path class="st9" d="M230.8,187.8c-2.9,0-5.3-2.4-5.3-5.3v-6.3c0-2.9,2.4-5.3,5.3-5.3s5.3,2.4,5.3,5.3v6.3
			C236.1,185.4,233.7,187.8,230.8,187.8z"/>
		<path class="st9" d="M111.4,235.5c-2.9,0-5.3-2.4-5.3-5.3v-6.3c0-2.9,2.4-5.3,5.3-5.3s5.3,2.4,5.3,5.3v6.3
			C116.7,233.2,114.3,235.5,111.4,235.5z"/>
		<path class="st9" d="M111.4,211.7c-2.9,0-5.3-2.4-5.3-5.3v-6.3c0-2.9,2.4-5.3,5.3-5.3s5.3,2.4,5.3,5.3v6.3
			C116.7,209.3,114.3,211.7,111.4,211.7z"/>
		<path class="st9" d="M111.4,187.8c-2.9,0-5.3-2.4-5.3-5.3v-6.3c0-2.9,2.4-5.3,5.3-5.3s5.3,2.4,5.3,5.3v6.3
			C116.7,185.4,114.3,187.8,111.4,187.8z"/>
		<path class="st9" d="M210.3,161.7h-6.3c-2.9,0-5.3-2.4-5.3-5.3s2.4-5.3,5.3-5.3h6.3c2.9,0,5.3,2.4,5.3,5.3
			S213.2,161.7,210.3,161.7z"/>
		<path class="st9" d="M186.4,161.7h-6.3c-2.9,0-5.3-2.4-5.3-5.3s2.4-5.3,5.3-5.3h6.3c2.9,0,5.3,2.4,5.3,5.3
			S189.3,161.7,186.4,161.7z"/>
		<path class="st9" d="M162.5,161.7h-6.3c-2.9,0-5.3-2.4-5.3-5.3s2.4-5.3,5.3-5.3h6.3c2.9,0,5.3,2.4,5.3,5.3
			S165.4,161.7,162.5,161.7z"/>
		<path class="st9" d="M138.6,161.7h-6.3c-2.9,0-5.3-2.4-5.3-5.3s2.4-5.3,5.3-5.3h6.3c2.9,0,5.3,2.4,5.3,5.3
			S141.5,161.7,138.6,161.7z"/>
	</g>
	<path class="st10" d="M216.8,234.4c0,1.9-1.6,3.5-3.5,3.5H129c-1.9,0-3.5-1.6-3.5-3.5V174c0-1.9,1.6-3.5,3.5-3.5h84.3
		c1.9,0,3.5,1.6,3.5,3.5V234.4z"/>
	<path class="st11" d="M139.4,234.4V174c0-1.9,1.6-3.5,3.5-3.5H129c-1.9,0-3.5,1.6-3.5,3.5v60.4c0,1.9,1.6,3.5,3.5,3.5h13.9
		C141,237.9,139.4,236.3,139.4,234.4z"/>
	<g>
		<path class="st12" d="M240.6,161.7c0,1.9-1.6,3.5-3.5,3.5h-14.8c-1.9,0-3.5-1.6-3.5-3.5V147c0-1.9,1.6-3.5,3.5-3.5h14.8
			c1.9,0,3.5,1.6,3.5,3.5V161.7z"/>
		<path class="st12" d="M124,163.1c0,1.9-1.6,3.5-3.5,3.5h-14.8c-1.9,0-3.5-1.6-3.5-3.5v-14.8c0-1.9,1.6-3.5,3.5-3.5h14.8
			c1.9,0,3.5,1.6,3.5,3.5V163.1z"/>
		<path class="st12" d="M240.6,260c0,1.9-1.6,3.5-3.5,3.5h-14.8c-1.9,0-3.5-1.6-3.5-3.5v-14.8c0-1.9,1.6-3.5,3.5-3.5h14.8
			c1.9,0,3.5,1.6,3.5,3.5V260z"/>
		<path class="st12" d="M124,260c0,1.9-1.6,3.5-3.5,3.5h-14.8c-1.9,0-3.5-1.6-3.5-3.5v-14.8c0-1.9,1.6-3.5,3.5-3.5h14.8
			c1.9,0,3.5,1.6,3.5,3.5V260z"/>
	</g>
	<g>
		<path class="st13" d="M226.6,161.7V147c0-1.9,1.6-3.5,3.5-3.5h-7.7c-1.9,0-3.5,1.6-3.5,3.5v14.8c0,1.9,1.6,3.5,3.5,3.5h7.7
			C228.2,165.2,226.6,163.6,226.6,161.7z"/>
		<path class="st13" d="M110,163.1v-14.8c0-1.9,1.6-3.5,3.5-3.5h-7.7c-1.9,0-3.5,1.6-3.5,3.5v14.8c0,1.9,1.6,3.5,3.5,3.5h7.7
			C111.6,166.6,110,165,110,163.1z"/>
		<path class="st13" d="M226.6,260v-14.8c0-1.9,1.6-3.5,3.5-3.5h-7.7c-1.9,0-3.5,1.6-3.5,3.5V260c0,1.9,1.6,3.5,3.5,3.5h7.7
			C228.2,263.5,226.6,261.9,226.6,260z"/>
		<path class="st13" d="M110,260v-14.8c0-1.9,1.6-3.5,3.5-3.5h-7.7c-1.9,0-3.5,1.6-3.5,3.5V260c0,1.9,1.6,3.5,3.5,3.5h7.7
			C111.6,263.5,110,261.9,110,260z"/>
	</g>
	<path class="st10" d="M382.1,334.4c-0.1-0.3-0.1-0.5-0.1-0.5c0,0,0,0,0.1,0c0.1,0,0.2,0,0.4,0.1l29.6,10.9v-66.5
		c0-1.9-1.6-3.5-3.5-3.5H296.9c-1.9,0-3.5,1.6-3.5,3.5V359c0,1.9,1.6,3.5,3.5,3.5h95.5L382.1,334.4z"/>
	<path class="st11" d="M307.3,359v-80.6c0-1.9,1.6-3.5,3.5-3.5h-13.9c-1.9,0-3.5,1.6-3.5,3.5V359c0,1.9,1.6,3.5,3.5,3.5h13.9
		C308.9,362.5,307.3,360.9,307.3,359z"/>
	<path class="st3" d="M382.7,333.3c-1.2-0.4-1.8,0.2-1.3,1.3l18.5,50.4c0.4,1.2,1.5,1.4,2.4,0.5l9.8-9.8c0.9-0.9,2.3-0.9,3.2,0
		l11.3,11.3c0.9,0.9,2.3,0.9,3.2,0l5.4-5.4c0.9-0.9,0.9-2.3,0-3.2l-11.3-11.3c-0.9-0.9-0.9-2.3,0-3.2l9.8-9.8
		c0.9-0.9,0.6-1.9-0.5-2.4L382.7,333.3z"/>
</g>
</svg>
