<?xml version="1.0" encoding="utf-8"?>
<!-- Generator: Adobe Illustrator 21.0.0, SVG Export Plug-In . SVG Version: 6.00 Build 0)  -->
<svg version="1.1" id="Capa_1" xmlns="http://www.w3.org/2000/svg" xmlns:xlink="http://www.w3.org/1999/xlink" x="0px" y="0px"
	 viewBox="0 0 512 512" style="enable-background:new 0 0 512 512;" xml:space="preserve">
<style type="text/css">
	.st0{fill:#0868AC;}
</style>
<g>
	<g>
		<path class="st0" d="M489.2,358.7c1.1,10.6-3.9,16-7.4,21.5C431.9,459.1,359.1,489.8,267.2,489c-103.8-1-235.6-95.3-253.8-232.6
			C4.6,189.7,27,134.4,74.8,86.8c-40.9,130.6,6.1,227,113.5,299c46.8,31.4,100.3,43.2,156.5,40C400.6,422.5,449.9,403.1,489.2,358.7
			z"/>
		<path class="st0" d="M201.5,44.4c-18.1,45-17.1,86.9,1,128.1c16.5,37.4,42.8,66.4,77.3,87.9c72.8,45.5,139.2,39.4,220.6-20.3
			c1.2,8.1-3.3,13.6-6.8,19.1c-33,53.7-83.6,76-144.2,77c-92.7,1.6-177-69.3-193-160.6C148.2,129.3,165.1,77.6,201.5,44.4z"/>
		<path class="st0" d="M485,150.7c-9.9,29.3-42.8,49.9-80.2,50.6c-54.3,1-103.2-31-122-79.7C269.1,85.9,276.4,46.1,303,23
			c-12.4,54.7,4.9,97.5,48.6,126.1C394.1,176.9,439.8,184.3,485,150.7z"/>
	</g>
</g>
</svg>
