<?xml version="1.0" encoding="utf-8"?>
<!-- Generator: Adobe Illustrator 21.0.0, SVG Export Plug-In . SVG Version: 6.00 Build 0)  -->
<svg version="1.1" id="Capa_1" xmlns="http://www.w3.org/2000/svg" xmlns:xlink="http://www.w3.org/1999/xlink" x="0px" y="0px"
	 viewBox="0 0 512 512" style="enable-background:new 0 0 512 512;" xml:space="preserve">
<style type="text/css">
	.st0{fill:#F0DB4F;}
</style>
<path class="st0" d="M0,0c0,170.7,0,341.3,0,512c170.7,0,341.3,0,512,0c0-170.7,0-341.3,0-512C341.3,0,170.7,0,0,0z M273.6,429.3
	c-6.4,18.7-18.8,31.6-37.5,37.6c-22,7.1-44,6.7-65.3-2.5c-16.5-7.1-28-19.6-35.8-35.5c-0.2-0.4-0.3-0.8-0.5-1.4
	c12.9-7.8,25.9-15.7,39-23.6c1.5,2.5,2.9,4.9,4.3,7.2c3.1,4.9,6.3,9.7,11.3,12.9c9.8,6.3,20.2,6.1,30.3,1.2c6.4-3.1,8.7-9.4,9.7-16
	c0.6-4.1,0.9-8.4,0.9-12.6c0.1-52.5,0-105,0-157.4c0-1.2,0-2.4,0-3.8c16,0,31.9,0,48,0c0,0.9,0.1,1.9,0.1,2.8c0,53,0,106.1,0,159.1
	C278.2,408.1,277.2,418.9,273.6,429.3z M463.3,437c-8,14.1-20.1,23.4-35.2,28.3c-31.3,10.2-61.9,8.5-90.9-7.7
	c-14.5-8.1-25.2-20.2-33-35.3c13.1-7.6,26.1-15.1,38.8-22.5c3.7,4.6,6.8,9.3,10.7,13.3c14.8,15.4,32.9,18.9,52.9,13
	c8.1-2.4,14.2-7.6,16.1-16.4c1.6-7.6,0.3-14.8-5.6-20.1c-4.2-3.7-9-7-14-9.4c-9.6-4.7-19.6-8.5-29.2-13.2c-8.5-4.1-17.1-8.4-25-13.5
	c-21-13.7-30.6-33.6-30.2-58.6c0.6-29.5,18.7-52.4,47.8-59.8c19.2-4.8,38.3-4.2,56.8,3.4c15.1,6.2,25.6,17.6,33.6,31.5
	c0.1,0.2,0.1,0.5,0.2,0.9c-12.3,7.9-24.6,15.8-37.1,23.8c-1.2-1.9-2.3-3.7-3.5-5.4c-4.6-6.7-10.2-12-18.3-14
	c-5.8-1.4-11.5-1.6-17.3,0.1c-18,5.3-18,26.3-9,34.6c3.5,3.2,7.5,6,11.7,8.1c8.8,4.4,18,8.2,27,12.2c12.9,5.7,25.5,12,36.6,20.9
	c15.6,12.5,23.2,28.9,24,48.7C471.7,413,469.8,425.5,463.3,437z"/>
</svg>
