<?xml version="1.0" encoding="utf-8"?>
<!-- Generator: Adobe Illustrator 21.0.0, SVG Export Plug-In . SVG Version: 6.00 Build 0)  -->
<svg version="1.1" id="Layer_1" xmlns="http://www.w3.org/2000/svg" xmlns:xlink="http://www.w3.org/1999/xlink" x="0px" y="0px"
	 viewBox="0 0 512 512" style="enable-background:new 0 0 512 512;" xml:space="preserve">
<style type="text/css">
	.st0{fill:#FFFFFF;}
	.st1{fill:#A6A385;}
	.st2{fill:#499D4A;}
	.st3{fill:#58AA50;}
</style>
<g>
	<path class="st0" d="M267.2,501.9l-13.1-4.5c0,0,1.6-66.7-22.4-71.5c-16-18.5,2.6-785.6,60-2.6c0,0-19.8,9.9-23.3,26.8
		C264.6,466.8,267.2,501.9,267.2,501.9L267.2,501.9z"/>
	<path class="st1" d="M267.2,501.9l-13.1-4.5c0,0,1.6-66.7-22.4-71.5c-16-18.5,2.6-785.6,60-2.6c0,0-19.8,9.9-23.3,26.8
		C264.6,466.8,267.2,501.9,267.2,501.9L267.2,501.9z"/>
	<path class="st0" d="M274.2,437.4c0,0,114.6-75.4,87.8-232.2c-25.9-114-86.9-151.4-93.6-165.7c-7.3-10.2-14.4-28.1-14.4-28.1
		l4.8,317.1C258.9,328.8,249,425.6,274.2,437.4"/>
	<path class="st2" d="M274.2,437.4c0,0,114.6-75.4,87.8-232.2c-25.9-114-86.9-151.4-93.6-165.7c-7.3-10.2-14.4-28.1-14.4-28.1
		l4.8,317.1C258.9,328.8,249,425.6,274.2,437.4"/>
	<path class="st0" d="M247.4,441.5c0,0-107.6-73.5-101.2-202.8c6.1-129.3,82.1-192.9,96.8-204.4c9.6-10.2,9.9-14.1,10.5-24.3
		c6.7,14.4,5.4,214.9,6.4,238.6C262.7,339.7,254.7,424.3,247.4,441.5z"/>
	<path class="st3" d="M248.4,441.5c0,0-107.6-73.5-101.2-202.8c6.1-129.3,82.1-192.9,96.8-204.4c9.6-10.2,9.9-14.1,10.5-24.3
		c6.7,14.4,5.4,214.9,6.4,238.6C263.7,339.7,255.7,424.3,248.4,441.5z"/>
</g>
</svg>
