<?xml version="1.0" encoding="utf-8"?>
<!-- Generator: Adobe Illustrator 21.0.0, SVG Export Plug-In . SVG Version: 6.00 Build 0)  -->
<svg version="1.1" id="Layer_1" xmlns="http://www.w3.org/2000/svg" xmlns:xlink="http://www.w3.org/1999/xlink" x="0px" y="0px"
	 viewBox="0 0 512 512" style="enable-background:new 0 0 512 512;" xml:space="preserve">
<style type="text/css">
	.st0{fill:#7FBD42;}
</style>
<g>
	<g>
		<path class="st0" d="M256.1,504c-6.6,0-13.2-1.7-19.1-5.1L176.3,463c-9.1-5.1-4.6-6.9-1.7-7.9c12.1-4.2,14.5-5.2,27.4-12.5
			c1.4-0.8,3.1-0.5,4.5,0.3l46.6,27.7c1.7,0.9,4.1,0.9,5.6,0l181.8-104.9c1.7-1,2.8-2.9,2.8-4.9V151c0-2.1-1.1-4-2.8-5L258.9,41.2
			c-1.7-1-3.9-1-5.6,0L71.7,146c-1.8,1-2.9,3-2.9,5v209.7c0,2,1.1,3.9,2.8,4.9l49.8,28.8c27,13.5,43.5-2.4,43.5-18.4v-207
			c0-3,2.3-5.2,5.3-5.2h23c2.9,0,5.2,2.3,5.2,5.2V376c0,36-19.7,56.7-53.8,56.7c-10.5,0-18.8,0-41.9-11.4l-47.7-27.5
			C43.3,387,36,374.3,36,360.7V151c0-13.6,7.3-26.4,19.1-33.1L237,12.9c11.5-6.5,26.8-6.5,38.2,0l181.7,105
			c11.7,6.8,19.1,19.5,19.1,33.1v209.7c0,13.6-7.3,26.3-19.1,33.1l-181.7,105C269.4,502.2,262.8,503.9,256.1,504"/>
		<path class="st0" d="M312.2,359.5c-79.5,0-96.2-36.5-96.2-67.1c0-2.9,2.3-5.2,5.3-5.2h23.5c2.6,0,4.8,1.9,5.2,4.4
			c3.5,23.9,14.1,36,62.2,36c38.3,0,54.6-8.7,54.6-29c0-11.7-4.6-20.4-64.1-26.2c-49.8-4.9-80.5-15.9-80.5-55.7
			c0-36.7,30.9-58.5,82.8-58.5c58.2,0,87,20.2,90.7,63.6c0.1,1.5-0.4,3-1.4,4c-1,1-2.4,1.7-3.9,1.7h-23.6c-2.5,0-4.6-1.7-5.1-4.1
			c-5.7-25.2-19.4-33.2-56.8-33.2c-41.8,0-46.7,14.6-46.7,25.5c0,13.2,5.7,17.1,62.1,24.6c55.9,7.4,82.4,17.9,82.4,57.1
			c0,39.6-33,62.3-90.6,62.3"/>
	</g>
</g>
</svg>
