<?xml version="1.0" encoding="utf-8"?>
<!-- Generator: Adobe Illustrator 21.0.0, SVG Export Plug-In . SVG Version: 6.00 Build 0)  -->
<svg version="1.1" id="Capa_1" xmlns="http://www.w3.org/2000/svg" xmlns:xlink="http://www.w3.org/1999/xlink" x="0px" y="0px"
	 viewBox="0 0 512 512" style="enable-background:new 0 0 512 512;" xml:space="preserve">
<style type="text/css">
	.st0{fill:#2FC3EB;}
</style>
<g>
	<g>
		<g>
			<g>
				<path class="st0" d="M197.1,196.8h-48.3v72.1H199c15.2,0,27.9-14.2,27.9-36C226.9,214,215.5,196.8,197.1,196.8z"/>
			</g>
		</g>
		<g>
			<g>
				<path class="st0" d="M0,0v512h512V0H0z M201.5,306.8h-52.7v74.6h-43.3V158.8H200c43.2,0,70.8,39.7,70.8,74
					C270.8,273.2,240.1,306.8,201.5,306.8z M358.9,384.5c-37.9,0-64.9-17.2-74.3-25.4l15.7-26.3c10,7.1,33.1,21.6,57.7,21.6
					c15.9,0,27-6.7,27-18.2c0-14.1-23.3-18.7-36-22.3c-10.7-2.9-58.6-9.7-58.6-45.8c0-34.8,30.2-54.2,64.6-54.2
					c36,0,55.3,14.6,64.3,22.6L402.2,262c-8.4-6.3-27-18.2-47.6-18.2c-15.2,0-25.1,6.5-25.1,18.5c0,15,26.2,19.2,32.3,20.7
					c11.3,2.9,63.6,10.9,63.6,49.5C425.4,378.1,379.4,384.5,358.9,384.5z"/>
			</g>
		</g>
	</g>
</g>
</svg>
