<?xml version="1.0" encoding="utf-8"?>
<!-- Generator: Adobe Illustrator 21.0.0, SVG Export Plug-In . SVG Version: 6.00 Build 0)  -->
<svg version="1.1" id="Capa_1" xmlns="http://www.w3.org/2000/svg" xmlns:xlink="http://www.w3.org/1999/xlink" x="0px" y="0px"
	 viewBox="0 0 512 512" style="enable-background:new 0 0 512 512;" xml:space="preserve">
<style type="text/css">
	.st0{fill:#001C24;}
	.st1{fill:#2FC3EB;}
</style>
<g>
	<rect x="10" y="10" class="st0" width="492" height="492"/>
	<path class="st1" d="M492,20v472H20V20H492 M512,0H0v512h512V0L512,0z"/>
</g>
<g>
	<path class="st1" d="M137.1,291.8h53.7c39.3,0,70.6-34.2,70.6-75.4c0-35-28.1-75.4-72.2-75.4H93v226.8h44.1V291.8z M137.1,179.7
		h49.2c18.8,0,30.4,17.5,30.4,36.8c0,22.2-12.9,36.7-28.4,36.7h-51.2V179.7z"/>
	<path class="st1" d="M350.3,340.3c-25.1,0-48.6-14.8-58.8-22l-16,26.8c9.6,8.4,37.1,25.9,75.7,25.9c20.9,0,67.8-6.5,67.8-53
		c0-39.3-53.3-47.5-64.8-50.4c-6.2-1.5-32.9-5.8-32.9-21.1c0-12.2,10.1-18.9,25.6-18.9c21,0,39.9,12.1,48.5,18.5l17.4-26
		c-9.2-8.2-28.8-23-65.5-23c-35.1,0-65.8,19.8-65.8,55.2c0,36.8,48.8,43.7,59.7,46.7c12.9,3.7,36.7,8.4,36.7,22.7
		C377.8,333.5,366.5,340.3,350.3,340.3z"/>
</g>
</svg>
