<?xml version="1.0" encoding="utf-8"?>
<!-- Generator: Adobe Illustrator 21.0.0, SVG Export Plug-In . SVG Version: 6.00 Build 0)  -->
<svg version="1.1" id="Capa_1" xmlns="http://www.w3.org/2000/svg" xmlns:xlink="http://www.w3.org/1999/xlink" x="0px" y="0px"
	 viewBox="0 0 512 512" style="enable-background:new 0 0 512 512;" xml:space="preserve">
<style type="text/css">
	.st0{fill:#61DAFB;}
</style>
<g>
	<g>
		<path class="st0" d="M99.9,408.2c0.1-23.6,3.2-43.2,7.6-62.7c0.8-3.4,0.1-4.8-3.3-5.8c-23.5-6.9-46.1-16.1-66.6-29.9
			c-11.5-7.8-22-16.8-29.1-29c-10.2-17.4-9.8-34.6,1.1-51.5c9.3-14.4,22.6-24.4,37-33c18-10.7,37.3-18.3,57.4-24.2
			c3.5-1,4.4-2.3,3.6-6c-5.1-22.2-8.4-44.6-7.4-67.4c0.7-15.9,3.2-31.5,11.3-45.6c8.7-15.1,21.7-23.3,39.2-24
			c19.7-0.8,37,6.7,53.7,16.2c18,10.3,33.9,23.2,48.9,37.3c2.3,2.1,3.4,2.1,5.7,0c16.8-16,34.9-30.2,55.4-41
			c13.8-7.2,28.2-12.5,44.1-12.6c21-0.1,35.5,10,44.5,28.4c5.5,11.1,7.5,23.1,8.5,35.4c2.1,24.9-1.7,49.2-7,73.3
			c-0.8,3.4,0,4.8,3.4,5.9c26.1,8.1,51.3,18.1,73.2,34.8c9.7,7.4,18.2,15.9,23.9,26.8c8.6,16.4,7.6,32.4-2.1,47.9
			c-8.5,13.8-20.9,23.6-34.5,32c-18.7,11.5-38.9,19.6-59.8,26c-5.2,1.6-5.2,1.5-4,7c4.7,20.6,7.8,41.4,7.4,62.6
			c-0.3,13.6-2.1,27-6.8,40c-9.1,24.7-30.4,37.2-56.4,33.1c-21.1-3.4-39.2-13.5-56.4-25.4c-12.2-8.3-23.4-17.8-34-28
			c-1.9-1.8-3-1.7-4.8,0c-12.6,11.9-25.9,23.1-40.5,32.4c-15.4,9.8-31.5,18.1-49.9,21c-27.5,4.2-49.7-9.9-57.6-36.5
			c-1.7-5.6-3.1-11.3-3.9-17.1C100.4,420.7,99.7,412.7,99.9,408.2z M255,175.3c-11.3-0.3-23.5,0.9-35.7,0.9c-7,0-10.7,3.1-14.3,8.7
			c-14.2,22-27.3,44.6-38.7,68.2c-0.9,1.8-1,3.5-0.1,5.3c12.4,25.7,26.7,50.4,42.7,74.1c1.2,1.7,2.6,2.4,4.6,2.5
			c6.2,0.2,12.4,0.5,18.7,0.9c22.4,1.3,44.8,0.4,67.2-0.9c1.7-0.1,2.7-0.9,3.6-2.2c15.8-23.8,30.4-48.3,42.6-74.1c1-2.2,0.8-4-0.2-6
			c-12.3-25.5-26.6-49.9-42.4-73.4c-1.1-1.6-2.3-2.4-4.2-2.5C284.5,175.9,270.2,175,255,175.3z M25,257.2c0.5,4,2,8.3,4.6,12.2
			c6.6,9.8,15.6,17,25.5,23.2c17.1,10.8,35.8,17.9,55,24.1c4.7,1.5,4.8,1.5,6.3-3.2c6-18.5,12.6-36.8,20.9-54.4c1-2.2,1.1-4.2,0-6.4
			c-8.5-18.1-15.2-36.8-21.3-55.8c-0.9-2.7-2.1-3.1-4.7-2.3c-11.7,3.5-23.2,7.7-34.3,12.8c-16.1,7.3-31.4,15.9-43.3,29.3
			C28.7,242.4,25.2,248.8,25,257.2z M486.8,256.2c0.1-3.6-0.7-6.9-2.3-10.1c-3.8-7.5-9.4-13.5-15.9-18.6c-20.3-16-44-25.1-68.3-32.9
			c-2.6-0.8-3.6,0.2-4.3,2.5c-6.1,19.3-13.1,38.2-21.6,56.5c-0.8,1.8-0.7,3.2,0.1,4.9c8.2,17.9,15.3,36.3,21.1,55.1
			c1.1,3.5,2.4,4.6,6.1,3.4c12.6-4.4,25.3-8.4,37.3-14.4c14-7,27.6-14.5,38.3-26.3C482.4,270.5,486.7,264.3,486.8,256.2z M124.1,106
			c-0.3,19.1,2.8,36.7,6.6,54.3c0.7,3.4,2.1,4.1,5.4,3.4c18.9-4.1,37.9-7.1,57.2-9c2.1-0.2,4.1-0.6,5.5-2.6
			c11.8-16.4,24.3-32.2,38.1-47c2-2.1,1.9-3.5-0.3-5.5c-14.1-13-28.9-24.9-45.6-34.4c-11-6.2-22.5-11.3-35.4-12.3
			c-8.7-0.7-16.3,1.8-21.6,9.2c-2.8,4-4.8,8.4-6.2,13.1C124.7,85.6,123.8,96.2,124.1,106z M388,406.4c0.1-19.3-2.8-36.7-6.6-54.1
			c-1.1-5.2-1.2-5.1-6.3-4c-17.9,3.9-36,6.8-54.2,8.5c-4.1,0.4-6.8,1.8-9.2,5.1c-11.3,15.5-23.1,30.6-36.3,44.6
			c-2.2,2.3-1.8,3.8,0.3,5.8c12.3,11.6,25.4,22.1,39.7,31c10.6,6.6,21.8,12.1,34.2,14.6c7.3,1.5,14.6,1.9,21.5-2
			c7.4-4.2,10.6-11.4,13-19C387.3,426.6,388.3,415.8,388,406.4z M388,106.6c0.1-13.3-1.1-26.4-6.7-38.7c-5.3-11.7-13-15.6-24.5-15.1
			c-6.6,0.3-13,2-19.2,4.5c-24.1,9.7-44,25.5-62.8,43c-1.8,1.6-1.3,2.9,0.1,4.4c13.9,14.7,26.2,30.7,38.2,46.9
			c1.4,1.9,3.1,2.8,5.3,3c19.7,1.8,39.2,5,58.6,9.3c2.5,0.6,3.7,0,4.2-2.6C384.9,143.2,388.2,125.1,388,106.6z M124.2,404.1
			c0,4.1-0.2,8.2,0,12.3c0.7,10.3,2.6,20.3,7.4,29.5c3.7,7.2,9.4,11.7,17.7,12.7c9.2,1,17.9-1.2,26.2-4.6
			c23.6-9.6,43-25.4,61.5-42.4c1.8-1.6,1.4-2.7,0-4.3c-13.6-15-26.3-30.6-38-47.1c-1.5-2.1-3.3-2.9-5.6-3.1
			c-19.5-1.9-38.8-4.7-57.9-9.1c-2.7-0.6-4-0.2-4.7,2.8C127,368.4,123.8,386,124.2,404.1z M283.4,360c-2.4,0-3.6,0-4.9,0
			c-7.6,0.2-15.2,0.5-22.8,0.5c-7.6,0-15.2-0.4-22.8-0.5c-1,0-2.5-0.6-3.1,0.6c-0.5,0.9,0.6,1.8,1.2,2.5c7.4,9.4,15.1,18.5,23,27.5
			c1.4,1.6,2.3,1.3,3.5-0.2c4.9-5.7,9.9-11.2,14.7-16.9C275.9,369.4,279.3,365.1,283.4,360z M283.1,151.6
			c-7.9-10.3-15.5-19.8-23.8-28.7c-3.4-3.7-3.5-3.6-6.8,0.1c-7,8.1-14.1,16.1-20.5,24.7c-0.8,1.1-2.7,1.9-2.1,3.2
			c0.7,1.6,2.7,0.7,4.1,0.7c9.8,0,19.7-1,29.5-0.5C269.7,151.5,275.9,151.9,283.1,151.6z M152.7,285.1c-1.5,1-1.7,2.3-2.1,3.4
			c-4,10.3-7.9,20.7-11.3,31.3c-1.3,4.2-1.2,4.5,3.2,5.4c10.7,2.2,21.5,4.1,32.4,5.6c1.2,0.2,2.6,1.1,3.4-0.1c0.7-1-0.6-2-1.2-2.9
			c-6-9.6-11.8-19.4-17.2-29.3C157.5,294,155.2,289.6,152.7,285.1z M152.3,227.6c3.5-6.5,6.2-11.9,9.3-17.2
			c5.3-9,10.7-17.9,16.1-26.9c0.4-0.7,1.2-1.4,0.9-2.4c-0.3-0.9-1.3-0.7-1.9-0.6c-11.9,1.8-23.8,3.8-35.6,6.4
			c-2.3,0.5-2.6,1.8-1.9,3.8c1.4,4.1,2.7,8.3,4.2,12.4C146,211,149,218.8,152.3,227.6z M359.4,284.7c-2.7,5-5.1,9.6-7.6,14.2
			c-5.5,9.9-11.3,19.6-17.3,29.2c-0.5,0.8-1.5,1.7-0.9,2.7c0.5,0.8,1.6,0.4,2.4,0.3c11.4-1.8,22.9-3.6,34.2-6c3-0.6,3.6-1.9,2.6-4.6
			c-2.7-7.2-5-14.6-7.7-21.8C363.5,294,362.1,289.4,359.4,284.7z M359.7,227.2c5.1-12.6,9.6-24.7,13.4-37c0.7-2.4-0.7-2.8-2.4-3.2
			c-11.5-2.6-23.2-4.6-34.8-6.4c-0.7-0.1-1.7-0.1-2.1,0.2c-0.8,0.8,0.1,1.6,0.5,2.3c3,5,6.2,9.9,9.1,15
			C348.7,207.6,354,217,359.7,227.2z"/>
		<path class="st0" d="M303.8,256c-0.1,26.5-21.8,48.2-48.3,47.7c-29.2-0.5-47.8-24.8-47.2-48.7c0.6-25.7,21.8-47.1,47.5-47
			C282.3,208,303.9,229.6,303.8,256z"/>
	</g>
</g>
</svg>
