<?xml version="1.0" encoding="utf-8"?>
<!-- Generator: Adobe Illustrator 21.0.0, SVG Export Plug-In . SVG Version: 6.00 Build 0)  -->
<svg version="1.1" id="Capa_1" xmlns="http://www.w3.org/2000/svg" xmlns:xlink="http://www.w3.org/1999/xlink" x="0px" y="0px"
	 viewBox="0 0 512 512" style="enable-background:new 0 0 512 512;" xml:space="preserve">
<style type="text/css">
	.st0{fill:#764ABC;}
</style>
<g>
	<g>
		<path class="st0" d="M258,13.1c1.6,0.5,3.3,0.3,4.9,0.5c6.5,0.7,12.9,1.9,19.1,3.7c13.9,4,26.6,10.4,38.3,18.9
			c6.1,4.4,11.8,9.3,17,14.7c9.1,9.4,16.9,19.7,23.5,31.1c6.6,11.6,11.9,23.7,16,36.4c3.4,10.7,5.9,21.6,7.7,32.6
			c1.1,6.6,1.8,13.2,2.4,19.8c0.3,2.7,0.2,2.7-2.4,1.9c-9.6-3.3-19.2-6.3-29-8.8c-1.6-0.4-1.6-0.5-1.7-1.9
			c-0.4-6.1-1.6-12.2-2.9-18.2c-3.5-14.9-8.8-29.2-15.9-42.8c-5-9.5-10.8-18.4-17.9-26.5c-6.9-7.9-14.7-14.8-23.8-20
			c-8.5-4.9-17.6-8-27.3-9.3c-5.1-0.7-10.3-0.8-15.4-0.5c-7.5,0.5-14.9,1.8-22.1,3.8c-9.6,2.6-18.8,6.1-27.6,10.8
			c-9.4,5-17.8,11.2-24.9,19.1c-3.1,3.4-5.8,7.2-8.5,11c-5.6,7.9-10.5,16.3-14.7,25c-5.6,11.8-9.7,24-12.6,36.7
			c-1.6,7-2.8,14-3.6,21.1c-0.5,4.3-0.9,8.7-1.1,13.1c-0.3,6.4-0.7,12.8-0.5,19.2c0.1,5.7,0.4,11.3,0.8,17
			c1.1,14.9,3.7,29.5,7.5,43.9c3.4,12.6,7.8,24.8,13.3,36.7c3.5,7.7,7.4,15.2,11.6,22.5c0.2,0.3,0.3,0.5,0.5,0.8
			c0.4,0.8,1.1,1.2,2,1.1c1.4-0.1,2.8-0.3,4.2-0.3c16.8,0,31.5,10.9,35.7,27.1c3.4,13.2,0.3,25-9.1,34.9
			c-5.5,5.9-12.4,9.4-20.4,10.7c-10.6,1.6-20.2-0.8-28.6-7.5c-8-6.4-12.5-14.7-13.6-24.9c-0.8-7.3,0.6-14.1,4-20.5
			c0.7-1.4,0.6-2.4-0.1-3.7c-6.8-11.8-12.9-24-18.1-36.6c-5.5-13.3-10.1-26.9-13.6-40.9c-2.7-10.9-4.8-21.9-6.1-33
			c-0.7-6.3-1.2-12.6-1.6-19c-0.3-6-0.3-12.1-0.2-18.1c0.1-6.8,0.7-13.6,1.4-20.4c0.9-8.4,2.4-16.8,4.1-25.1
			c1.4-6.5,3.1-13,5.1-19.3c2.7-8.6,5.6-17.1,9.2-25.4c3.3-7.6,7.2-14.8,11.5-21.8c4.8-7.7,10.2-14.9,16.2-21.6
			c6.1-6.9,12.8-13.1,20-18.8c8.5-6.7,17.5-12.3,27.3-16.9c11.1-5.2,22.8-8.9,34.9-10.8c3.8-0.6,7.6-1.1,11.5-1.2
			c0.4,0,0.8,0,1.2-0.2C249.6,13.1,253.8,13.1,258,13.1z"/>
		<path class="st0" d="M365.1,498.9c-1.3-0.5-2.8-0.4-4.2-0.5c-7.8-0.5-15.5-1.7-23.2-3.2c-13.2-2.7-26-6.8-38.4-11.9
			c-2.7-1.1-5.4-2.4-8.1-3.6c-0.3-0.1-0.6-0.3-0.8-0.4c-0.8-0.4-0.8-0.6-0.1-1.2c0.2-0.1,0.3-0.3,0.5-0.4c7.4-5.6,14.8-11.3,22-17.3
			c1.7-1.4,3.4-2.9,5.1-4.4c0.7-0.6,1.3-0.8,2.2-0.4c11.2,4.9,22.9,8.4,34.9,10.6c5.2,1,10.4,1.7,15.6,2.1
			c5.1,0.4,10.2,0.7,15.3,0.5c16.4-0.5,32.1-3.9,46.6-11.8c5.9-3.2,11.4-7.1,16.5-11.5c9.2-8.1,16.4-17.7,22.2-28.4
			c4.6-8.4,7.6-17.3,9.1-26.8c0.4-2.8,0.6-5.7,0.8-8.5c0.3-3.8,0.1-7.5-0.1-11.2c-0.4-5.5-1.3-10.8-2.6-16.2
			c-2.1-8.7-5.3-17-9.1-25.1c-3.6-7.6-7.6-14.9-12.3-21.9c-4.9-7.4-10.4-14.3-16.4-20.8c-9.6-10.5-20.4-19.7-32.1-27.9
			c-11.9-8.3-24.5-15.6-37.7-21.8c-18.5-8.7-37.8-15-57.9-18.8c-6.9-1.3-13.9-2.3-20.8-3c-4.3-0.4-8.7-0.7-13.1-1
			c-5.3-0.3-10.5-0.2-15.8-0.2c-2.5,0-5,0.4-7.5,0.3c-1,0-1.4,0.6-1.8,1.4c-2.1,4.3-4.8,8-8.3,11.2c-5.6,5.1-12.1,8.3-19.6,9.2
			c-10.5,1.4-20-1.2-28.2-7.9c-7.5-6.2-11.9-14.2-13.2-23.9c-0.9-7.1,0.2-13.9,3.3-20.4c4.7-9.6,12.3-16,22.5-19.2
			c3.6-1.1,7.2-1.7,10.9-1.6c9.4,0.3,17.7,3.6,24.5,10.1c2.6,2.5,4.9,5.3,6.6,8.5c0.4,0.8,1,1,1.9,1c6.8-0.4,13.6-0.4,20.4,0
			c2.7,0.1,5.4,0.2,8.1,0.3c4.8,0.3,9.6,0.7,14.5,1.2c8.6,0.9,17.2,2.2,25.8,3.9c8.6,1.7,17.2,3.8,25.6,6.3
			c11.8,3.5,23.3,7.8,34.5,12.9c10,4.5,19.6,9.7,28.9,15.5c9.3,5.8,18.2,12.1,26.6,19.1c3.9,3.2,7.8,6.6,11.5,10.1
			c2.7,2.6,5.5,5.1,8.1,7.8c10.1,10.6,19.7,21.7,27.7,34.1c11.5,17.9,19.5,37.2,23.4,58.2c1,5.2,1.6,10.5,2,15.8
			c0.4,5.8,0.5,11.6,0.2,17.3c-0.8,15.2-4.1,29.9-11,43.6c-3.6,7.1-8.1,13.6-13.2,19.6c-3,3.6-6.2,6.9-9.5,10.1
			c-7,6.6-14.6,12.4-22.8,17.5c-11.6,7.2-24,12.6-37.2,16.4c-7.5,2.2-15,3.7-22.8,4.7c-4,0.5-8,0.8-12,1.2c-0.4,0-0.8,0.1-1.2,0.3
			C376.4,498.9,370.7,498.9,365.1,498.9z"/>
		<path class="st0" d="M135.8,498c-20.2,0-37.6-2.7-54.5-8.5c-13.8-4.7-26.6-11.3-38.2-20.2c-11.5-8.9-20.9-19.6-27.8-32.5
			c-6.4-12.1-10.6-25-13-38.4c-1-5.8-1.6-11.6-1.9-17.5c-0.6-9.6,0.1-19.1,1.5-28.6c2.5-16.6,7.9-32.3,15.8-47.1
			c5.4-10.2,12-19.8,19.4-28.7c4-4.8,8.2-9.4,12.7-13.8c7.7-7.6,16-14.6,24.8-21c0.1-0.1,0.3-0.2,0.4-0.3c1-0.6,1.2-0.5,1.5,0.6
			c0.7,3,1.4,6.1,2.1,9.1c1.7,7.1,3.6,14.2,5.8,21.2c0.5,1.7,0.6,1.7-0.9,2.8c-6.1,4.8-11.8,10-17.2,15.7
			c-11.3,12-20.9,25.2-27.8,40.3c-4.4,9.6-7.5,19.6-8.8,30.2c-0.7,5.4-0.9,10.8-0.6,16.2c0.6,11.6,3.4,22.6,8.1,33.2
			c3.3,7.4,7.4,14.5,12.4,20.9c7,9.1,15.7,16.4,25.7,21.9c10.5,5.7,21.7,9.2,33.5,11c5.2,0.8,10.4,1.3,15.7,1.6
			c5.2,0.3,10.4,0.3,15.6,0.2c5.1-0.1,10.2-0.6,15.2-1.3c9-1.2,17.9-3,26.6-5.6c8.7-2.5,17.2-5.7,25.5-9.4
			c15.7-7.2,30.5-15.7,44.7-25.4c8.7-5.9,17-12.4,24.8-19.4c4.3-3.8,8.4-7.8,12.4-11.9c7.3-7.7,14.1-15.9,20.2-24.6
			c5.3-7.7,10.1-15.6,14.4-23.9c0.1-0.2,0.2-0.5,0.4-0.7c0.6-1.3,0.6-1.3-0.3-2.3c-1.9-2-3.5-4.3-4.9-6.7c-2.8-5-4.4-10.3-4.7-16
			c-0.4-9.7,2.5-18.3,8.7-25.7c5.7-6.7,12.9-10.8,21.5-12.3c9.9-1.7,19.1,0.4,27.3,6.2c8.2,5.8,13.3,13.7,15,23.6
			c1.8,10.6-0.6,20.2-7.1,28.7c-5.8,7.6-13.6,12.1-23.1,13.7c-1.2,0.2-1.8,0.7-2.3,1.7c-5.2,10.6-11.1,20.7-17.7,30.5
			c-6.2,9.2-12.9,17.9-20.2,26.2c-4.2,4.7-8.4,9.4-12.9,13.8c-9.7,9.4-20,18.1-31.1,25.8c-10.8,7.6-22.1,14.3-34,20.1
			c-13.6,6.6-27.7,12.1-42.2,16.4c-9.9,2.9-19.9,5.3-30,7.2c-6.1,1.2-12.3,2-18.6,2.4C143.1,497.8,138.3,498.1,135.8,498z"/>
	</g>
</g>
</svg>
