<?xml version="1.0" encoding="utf-8"?>
<!-- Generator: Adobe Illustrator 21.0.0, SVG Export Plug-In . SVG Version: 6.00 Build 0)  -->
<svg version="1.1" id="Layer_1" xmlns="http://www.w3.org/2000/svg" xmlns:xlink="http://www.w3.org/1999/xlink" x="0px" y="0px"
	 viewBox="0 0 512 512" style="enable-background:new 0 0 512 512;" xml:space="preserve">
<style type="text/css">
	.st0{fill:#0066A6;}
</style>
<g>
	<g>
		<path class="st0" d="M497,310.9c0,10,0,20,0,30c-1.4,4-2.9,8.1-4.3,12.1c-11.2,30.2-39.2,50.5-71.4,50.6c-107,0.2-214,0.3-321-0.1
			C65.3,403.3,40,385.8,24,355.2c-3.8-7.2-6-15.2-9-22.9c0-10.7,0-21.4,0-32.1c9.2-34.1,29.3-58.2,63.8-68.9
			c5.8-1.8,6.7-6.8,8.4-11.5c10.7-30.2,38.7-47.3,70-41c10,2,14.4-1,19.8-8.6c42.4-60.4,121.5-79.4,185.3-44.3
			c44.1,24.3,68.3,62.4,74.5,112.2c0.6,5.2,0.2,11,6.7,13.3C472.2,261.4,488.7,282.5,497,310.9z"/>
	</g>
</g>
</svg>
