<?xml version="1.0" encoding="utf-8"?>
<!-- Generator: Adobe Illustrator 21.0.0, SVG Export Plug-In . SVG Version: 6.00 Build 0)  -->
<svg version="1.1" id="Capa_1" xmlns="http://www.w3.org/2000/svg" xmlns:xlink="http://www.w3.org/1999/xlink" x="0px" y="0px"
	 viewBox="0 0 512 512" style="enable-background:new 0 0 512 512;" xml:space="preserve">
<style type="text/css">
	.st0{fill:#FFFFFF;}
</style>
<g>
	<path class="st0" d="M503.6,250.4c-1.2-82.9-47.7-163.4-118.9-206c-56.5-34.9-127.4-44.5-191.5-28C96.6,40.4,20,127.9,10.2,227.1
		C-2,321,45.4,418.8,126.7,467.3c79.7,49.9,187.7,47.9,265.7-4.6C462.6,417.2,506.2,334.1,503.6,250.4z M269.8,466.8
		C157.2,478.1,48.4,382.6,45.2,269.6C36.8,178,97.1,87.2,183.4,56.9C304.6,8.4,453.1,98,465.6,227.8
		C485.2,344.7,388.2,463.4,269.8,466.8z"/>
	<path class="st0" d="M270.4,243.7c29.1-44.7,59-88.8,88.1-133.5c-55.5,43-108.6,88.9-162.9,133.3
		C220.5,243.8,245.4,243.8,270.4,243.7z"/>
	<path class="st0" d="M153.4,401.8c55.6-42.9,108.5-89.2,163.1-133.3c-25-0.4-49.9-0.4-75-0.4C212.4,312.9,182.5,357.1,153.4,401.8z
		"/>
</g>
</svg>
