<?xml version="1.0" encoding="utf-8"?>
<!-- Generator: Adobe Illustrator 21.0.0, SVG Export Plug-In . SVG Version: 6.00 Build 0)  -->
<svg version="1.1" id="Capa_1" xmlns="http://www.w3.org/2000/svg" xmlns:xlink="http://www.w3.org/1999/xlink" x="0px" y="0px"
	 viewBox="0 0 512 512" style="enable-background:new 0 0 512 512;" xml:space="preserve">
<style type="text/css">
	.st0{fill:#69CDFF;}
	.st1{fill:#445EA0;}
	.st2{fill:#2E4C89;}
	.st3{fill:#293D7C;}
	.st4{fill:#1A2B63;}
	.st5{fill:#FFFFFF;}
	.st6{fill:#D9EAFC;}
	.st7{fill:#C3DDF4;}
	.st8{fill:#AEC1ED;}
	.st9{fill:#FFAF10;}
	.st10{fill:#FF9518;}
	.st11{fill:#5DC1D8;}
</style>
<circle class="st0" cx="256" cy="256" r="256"/>
<g>
	<rect x="203.4" y="333.2" class="st1" width="58.9" height="30.9"/>
	<rect x="203.4" y="333.2" class="st2" width="14.8" height="30.9"/>
	<path class="st3" d="M301.5,363.3H159.9c-2.1,0-3.8,1.7-3.8,3.8v19.1c0,2.1,1.7,3.8,3.8,3.8h141.7L301.5,363.3L301.5,363.3z"/>
	<path class="st4" d="M170.9,386.2v-19.1c0-2.1,1.7-3.8,3.8-3.8h-14.8c-2.1,0-3.8,1.7-3.8,3.8v19.1c0,2.1,1.7,3.8,3.8,3.8h14.8
		C172.6,390.1,170.9,388.3,170.9,386.2z"/>
	<path class="st3" d="M397.5,109H68.2c-2.1,0-3.8,1.7-3.8,3.8v217.3c0,2.1,1.7,3.8,3.8,3.8h233.3V219.6c0-2.9,2.3-5.2,5.2-5.2h94.5
		V112.8C401.3,110.7,399.6,109,397.5,109z"/>
	<path class="st5" d="M81.2,295.7c0,1.3,1,2.3,2.3,2.3h218.1v-78.4c0-2.9,2.3-5.2,5.2-5.2h77.8v-67.9H81.2V295.7z"/>
	<path class="st6" d="M96,295.7V146.4H81.2v149.3c0,1.3,1,2.3,2.3,2.3h14.8C97.1,298,96,297,96,295.7z"/>
	<circle class="st1" cx="232.9" cy="315.9" r="10.3"/>
	<path class="st7" d="M301.5,231.9h-40c-1.2,0-2.2,1-2.2,2.2v44.6c0,1.2,1,2.2,2.2,2.2h40V231.9z"/>
	<path class="st8" d="M274.2,278.7v-44.6c0-1.2,1-2.2,2.2-2.2h-14.8c-1.2,0-2.2,1-2.2,2.2v44.6c0,1.2,1,2.2,2.2,2.2h14.8
		C275.2,281,274.2,280,274.2,278.7z"/>
	<path class="st7" d="M306.8,214.4h34.9v-48.9c0-2.1-1.7-3.7-3.7-3.7H127.8c-2.1,0-3.7,1.7-3.7,3.7v49.8c0,2.1,1.7,3.7,3.7,3.7
		h173.8C301.9,216.4,304.1,214.4,306.8,214.4z"/>
	<path class="st8" d="M138.9,215.2v-49.8c0-2.1,1.7-3.7,3.7-3.7h-14.8c-2.1,0-3.7,1.7-3.7,3.7v49.8c0,2.1,1.7,3.7,3.7,3.7h14.8
		C140.6,219,138.9,217.3,138.9,215.2z"/>
	<path class="st9" d="M382.2,128.5H83.5c-1.3,0-2.3,1-2.3,2.3v16.4h303.4v-16.4C384.5,129.5,383.5,128.5,382.2,128.5z"/>
	<path class="st10" d="M98.3,128.5H83.5c-1.3,0-2.3,1-2.3,2.3v16.4H96v-16.4C96,129.5,97.1,128.5,98.3,128.5z"/>
	<g>
		<path class="st11" d="M192.8,243.7h-63c-3.1,0-5.6-2.5-5.6-5.6c0-3.1,2.5-5.6,5.6-5.6h63c3.1,0,5.6,2.5,5.6,5.6
			C198.4,241.2,195.9,243.7,192.8,243.7z"/>
		<path class="st11" d="M192.8,262h-63c-3.1,0-5.6-2.5-5.6-5.6s2.5-5.6,5.6-5.6h63c3.1,0,5.6,2.5,5.6,5.6
			C198.4,259.5,195.9,262,192.8,262z"/>
		<path class="st11" d="M192.8,280.4h-63c-3.1,0-5.6-2.5-5.6-5.6s2.5-5.6,5.6-5.6h63c3.1,0,5.6,2.5,5.6,5.6S195.9,280.4,192.8,280.4
			z"/>
		<path class="st11" d="M242.2,243.7h-32.4c-3.1,0-5.6-2.5-5.6-5.6c0-3.1,2.5-5.6,5.6-5.6h32.4c3.1,0,5.6,2.5,5.6,5.6
			C247.8,241.2,245.3,243.7,242.2,243.7z"/>
		<path class="st11" d="M242.2,262h-32.4c-3.1,0-5.6-2.5-5.6-5.6s2.5-5.6,5.6-5.6h32.4c3.1,0,5.6,2.5,5.6,5.6
			C247.8,259.5,245.3,262,242.2,262z"/>
		<path class="st11" d="M242.2,280.4h-32.4c-3.1,0-5.6-2.5-5.6-5.6s2.5-5.6,5.6-5.6h32.4c3.1,0,5.6,2.5,5.6,5.6
			S245.3,280.4,242.2,280.4z"/>
	</g>
	<path class="st1" d="M441.6,213.6c3.3,0,6,2.7,6,6v180.9c0,3.3-2.7,6-6,6H306.8c-3.3,0-6-2.7-6-6V219.6c0-3.3,2.7-6,6-6
		L441.6,213.6L441.6,213.6z"/>
	<path class="st5" d="M317,383c-2.1,0-3.7-1.7-3.7-3.7V228.9c0-2.1,1.7-3.7,3.7-3.7h114.3c2.1,0,3.7,1.7,3.7,3.7v150.4
		c0,2.1-1.7,3.7-3.7,3.7H317z"/>
	<path class="st6" d="M328.1,379.3V228.9c0-2.1,1.7-3.7,3.7-3.7H317c-2.1,0-3.7,1.7-3.7,3.7v150.4c0,2.1,1.7,3.7,3.7,3.7h14.8
		C329.8,383,328.1,381.3,328.1,379.3z"/>
	<path class="st1" d="M367.2,398c-2.1,0-3.7-1.7-3.7-3.7v-1.5c0-2.1,1.7-3.7,3.7-3.7h14c2.1,0,3.7,1.7,3.7,3.7v1.5
		c0,2.1-1.7,3.7-3.7,3.7H367.2z"/>
	<path class="st9" d="M435.1,239.6v-10.7c0-2.1-1.7-3.7-3.7-3.7H317c-2.1,0-3.7,1.7-3.7,3.7v10.7L435.1,239.6L435.1,239.6z"/>
	<path class="st10" d="M331.9,225.1H317c-2.1,0-3.7,1.7-3.7,3.7v10.7h14.8v-10.7C328.1,226.8,329.8,225.1,331.9,225.1z"/>
	<g>
		<path class="st11" d="M399.7,308h-51c-3.1,0-5.6-2.5-5.6-5.6s2.5-5.6,5.6-5.6h51c3.1,0,5.6,2.5,5.6,5.6
			C405.3,305.5,402.8,308,399.7,308z"/>
		<path class="st11" d="M399.7,325.3h-51c-3.1,0-5.6-2.5-5.6-5.6c0-3.1,2.5-5.6,5.6-5.6h51c3.1,0,5.6,2.5,5.6,5.6
			C405.3,322.8,402.8,325.3,399.7,325.3z"/>
		<path class="st11" d="M399.7,342.6h-51c-3.1,0-5.6-2.5-5.6-5.6c0-3.1,2.5-5.6,5.6-5.6h51c3.1,0,5.6,2.5,5.6,5.6
			C405.3,340.1,402.8,342.6,399.7,342.6z"/>
	</g>
	<path class="st7" d="M423.5,283.6c0,2.1-1.7,3.7-3.7,3.7h-91c-2.1,0-3.7-1.7-3.7-3.7v-30.9c0-2.1,1.7-3.7,3.7-3.7h91
		c2.1,0,3.7,1.7,3.7,3.7V283.6z"/>
	<path class="st8" d="M339.8,283.6v-30.9c0-2.1,1.7-3.7,3.7-3.7h-14.8c-2.1,0-3.7,1.7-3.7,3.7v30.9c0,2.1,1.7,3.7,3.7,3.7h14.8
		C341.5,287.3,339.8,285.6,339.8,283.6z"/>
	<path class="st7" d="M410,371.3c0,2.1-1.7,3.7-3.7,3.7h-64.1c-2.1,0-3.7-1.7-3.7-3.7v-12.7c0-2.1,1.7-3.7,3.7-3.7h64.1
		c2.1,0,3.7,1.7,3.7,3.7V371.3L410,371.3z"/>
	<path class="st8" d="M353.2,371.3v-12.7c0-2.1,1.7-3.7,3.7-3.7h-14.8c-2.1,0-3.7,1.7-3.7,3.7v12.7c0,2.1,1.7,3.7,3.7,3.7H357
		C354.9,375,353.2,373.3,353.2,371.3z"/>
</g>
</svg>
