<?xml version="1.0" encoding="utf-8"?>
<!-- Generator: Adobe Illustrator 21.0.0, SVG Export Plug-In . SVG Version: 6.00 Build 0)  -->
<svg version="1.1" id="Capa_1" xmlns="http://www.w3.org/2000/svg" xmlns:xlink="http://www.w3.org/1999/xlink" x="0px" y="0px"
	 viewBox="0 0 512 512" style="enable-background:new 0 0 512 512;" xml:space="preserve">
<style type="text/css">
	.st0{fill:#69CDFF;}
	.st1{fill:#445EA0;}
	.st2{fill:#2E4C89;}
	.st3{fill:#293D7C;}
	.st4{fill:#1A2B63;}
	.st5{fill:#FFFFFF;}
	.st6{fill:#D9EAFC;}
	.st7{fill:#C3DDF4;}
	.st8{fill:#AEC1ED;}
	.st9{fill:#FFAF10;}
	.st10{fill:#FF9518;}
	.st11{fill:#5DC1D8;}
</style>
<circle class="st0" cx="256" cy="256" r="256"/>
<g>
	<rect x="205.9" y="327.8" class="st1" width="56.1" height="29.4"/>
	<rect x="205.9" y="327.8" class="st2" width="14.1" height="29.4"/>
	<path class="st3" d="M299.3,356.4H164.5c-2,0-3.6,1.6-3.6,3.6v18.2c0,2,1.6,3.6,3.6,3.6h134.8L299.3,356.4L299.3,356.4z"/>
	<path class="st4" d="M175,378.2v-18.2c0-2,1.6-3.6,3.6-3.6h-14.1c-2,0-3.6,1.6-3.6,3.6v18.2c0,2,1.6,3.6,3.6,3.6h14.1
		C176.6,381.9,175,380.2,175,378.2z"/>
	<path class="st3" d="M390.7,114.4H77.3c-2,0-3.6,1.6-3.6,3.6v206.8c0,2,1.6,3.6,3.6,3.6h222V219.7c0-2.8,2.2-4.9,4.9-4.9h89.9
		v-96.7C394.3,116.1,392.7,114.4,390.7,114.4z"/>
	<path class="st5" d="M89.7,292.1c0,1.2,1,2.2,2.2,2.2h207.6v-74.6c0-2.8,2.2-4.9,4.9-4.9h74v-64.6H89.7V292.1z"/>
	<path class="st6" d="M103.7,292.1V150H89.7v142.1c0,1.2,1,2.2,2.2,2.2h14.1C104.8,294.3,103.7,293.4,103.7,292.1z"/>
	<circle class="st1" cx="234" cy="311.3" r="9.8"/>
	<path class="st7" d="M299.3,231.4h-38.1c-1.1,0-2.1,1-2.1,2.1v42.4c0,1.1,1,2.1,2.1,2.1h38.1V231.4z"/>
	<path class="st8" d="M273.3,275.9v-42.4c0-1.1,1-2.1,2.1-2.1h-14.1c-1.1,0-2.1,1-2.1,2.1v42.4c0,1.1,1,2.1,2.1,2.1h14.1
		C274.3,278.1,273.3,277.2,273.3,275.9z"/>
	<path class="st7" d="M304.3,214.7h33.2v-46.5c0-2-1.6-3.5-3.5-3.5H134c-2,0-3.5,1.6-3.5,3.5v47.4c0,2,1.6,3.5,3.5,3.5h165.4
		C299.7,216.6,301.8,214.7,304.3,214.7z"/>
	<path class="st8" d="M144.6,215.5v-47.4c0-2,1.6-3.5,3.5-3.5H134c-2,0-3.5,1.6-3.5,3.5v47.4c0,2,1.6,3.5,3.5,3.5h14.1
		C146.2,219.1,144.6,217.5,144.6,215.5z"/>
	<path class="st9" d="M376.1,133H91.8c-1.2,0-2.2,1-2.2,2.2v15.6h288.7v-15.6C378.3,134,377.3,133,376.1,133z"/>
	<path class="st10" d="M105.9,133H91.8c-1.2,0-2.2,1-2.2,2.2v15.6h14.1v-15.6C103.7,134,104.8,133,105.9,133z"/>
	<g>
		<path class="st11" d="M195.9,242.6h-60c-3,0-5.3-2.4-5.3-5.3s2.4-5.3,5.3-5.3h60c3,0,5.3,2.4,5.3,5.3
			C201.2,240.3,198.8,242.6,195.9,242.6z"/>
		<path class="st11" d="M195.9,260h-60c-3,0-5.3-2.4-5.3-5.3c0-3,2.4-5.3,5.3-5.3h60c3,0,5.3,2.4,5.3,5.3
			C201.2,257.7,198.8,260,195.9,260z"/>
		<path class="st11" d="M195.9,277.6h-60c-3,0-5.3-2.4-5.3-5.3s2.4-5.3,5.3-5.3h60c3,0,5.3,2.4,5.3,5.3S198.8,277.6,195.9,277.6z"/>
		<path class="st11" d="M242.9,242.6H212c-3,0-5.3-2.4-5.3-5.3s2.4-5.3,5.3-5.3h30.8c3,0,5.3,2.4,5.3,5.3
			C248.2,240.3,245.8,242.6,242.9,242.6z"/>
		<path class="st11" d="M242.9,260H212c-3,0-5.3-2.4-5.3-5.3c0-3,2.4-5.3,5.3-5.3h30.8c3,0,5.3,2.4,5.3,5.3
			C248.2,257.7,245.8,260,242.9,260z"/>
		<path class="st11" d="M242.9,277.6H212c-3,0-5.3-2.4-5.3-5.3s2.4-5.3,5.3-5.3h30.8c3,0,5.3,2.4,5.3,5.3S245.8,277.6,242.9,277.6z"
			/>
	</g>
	<path class="st1" d="M432.6,214c3.1,0,5.7,2.6,5.7,5.7v172.2c0,3.1-2.6,5.7-5.7,5.7H304.3c-3.1,0-5.7-2.6-5.7-5.7V219.7
		c0-3.1,2.6-5.7,5.7-5.7H432.6L432.6,214z"/>
	<path class="st5" d="M314,375.2c-2,0-3.5-1.6-3.5-3.5V228.5c0-2,1.6-3.5,3.5-3.5h108.8c2,0,3.5,1.6,3.5,3.5v143.1
		c0,2-1.6,3.5-3.5,3.5H314z"/>
	<path class="st6" d="M324.6,371.7V228.5c0-2,1.6-3.5,3.5-3.5H314c-2,0-3.5,1.6-3.5,3.5v143.1c0,2,1.6,3.5,3.5,3.5h14.1
		C326.2,375.2,324.6,373.6,324.6,371.7z"/>
	<path class="st1" d="M361.8,389.5c-2,0-3.5-1.6-3.5-3.5v-1.4c0-2,1.6-3.5,3.5-3.5h13.3c2,0,3.5,1.6,3.5,3.5v1.4
		c0,2-1.6,3.5-3.5,3.5H361.8z"/>
	<path class="st9" d="M426.4,238.7v-10.2c0-2-1.6-3.5-3.5-3.5H314c-2,0-3.5,1.6-3.5,3.5v10.2H426.4L426.4,238.7z"/>
	<path class="st10" d="M328.2,224.9H314c-2,0-3.5,1.6-3.5,3.5v10.2h14.1v-10.2C324.6,226.5,326.2,224.9,328.2,224.9z"/>
	<g>
		<path class="st11" d="M392.8,303.8h-48.5c-3,0-5.3-2.4-5.3-5.3s2.4-5.3,5.3-5.3h48.5c3,0,5.3,2.4,5.3,5.3
			C398.1,301.4,395.7,303.8,392.8,303.8z"/>
		<path class="st11" d="M392.8,320.3h-48.5c-3,0-5.3-2.4-5.3-5.3s2.4-5.3,5.3-5.3h48.5c3,0,5.3,2.4,5.3,5.3
			C398.1,317.9,395.7,320.3,392.8,320.3z"/>
		<path class="st11" d="M392.8,336.7h-48.5c-3,0-5.3-2.4-5.3-5.3c0-3,2.4-5.3,5.3-5.3h48.5c3,0,5.3,2.4,5.3,5.3
			C398.1,334.4,395.7,336.7,392.8,336.7z"/>
	</g>
	<path class="st7" d="M415.4,280.6c0,2-1.6,3.5-3.5,3.5h-86.6c-2,0-3.5-1.6-3.5-3.5v-29.4c0-2,1.6-3.5,3.5-3.5h86.6
		c2,0,3.5,1.6,3.5,3.5V280.6z"/>
	<path class="st8" d="M335.7,280.6v-29.4c0-2,1.6-3.5,3.5-3.5h-14.1c-2,0-3.5,1.6-3.5,3.5v29.4c0,2,1.6,3.5,3.5,3.5h14.1
		C337.4,284.1,335.7,282.5,335.7,280.6z"/>
	<path class="st7" d="M402.6,364.1c0,2-1.6,3.5-3.5,3.5h-61c-2,0-3.5-1.6-3.5-3.5V352c0-2,1.6-3.5,3.5-3.5h61c2,0,3.5,1.6,3.5,3.5
		V364.1L402.6,364.1z"/>
	<path class="st8" d="M348.5,364.1V352c0-2,1.6-3.5,3.5-3.5h-14.1c-2,0-3.5,1.6-3.5,3.5v12.1c0,2,1.6,3.5,3.5,3.5h14.2
		C350.1,367.6,348.5,366,348.5,364.1z"/>
</g>
</svg>
