<?xml version="1.0" encoding="utf-8"?>
<!-- Generator: Adobe Illustrator 21.0.0, SVG Export Plug-In . SVG Version: 6.00 Build 0)  -->
<svg version="1.1" id="Capa_1" xmlns="http://www.w3.org/2000/svg" xmlns:xlink="http://www.w3.org/1999/xlink" x="0px" y="0px"
	 viewBox="0 0 512 512" style="enable-background:new 0 0 512 512;" xml:space="preserve">
<style type="text/css">
	.st0{fill:#FFFFFF;}
</style>
<g>
	<g>
		<path class="st0" d="M347.3,198.4H308v115.2h39.3c36.9,0,61.1-22,61.1-57.6S384.2,198.4,347.3,198.4z"/>
		<path class="st0" d="M0,0v512h512V0H0z M198.4,348.9l-44.9-64.5l-44.1,64.5H60.1l68.7-94.5l-65.3-91.3h48.8l42.7,60.3l41.9-60.3
			h46.5l-64.8,89.7l69.3,96.1H198.4z M349.4,348.9H265V163.1h84.4c60.8,0,102.5,36.6,102.5,92.9S410.2,348.9,349.4,348.9z"/>
	</g>
</g>
</svg>
