<?xml version="1.0" encoding="utf-8"?>
<!-- Generator: Adobe Illustrator 21.0.0, SVG Export Plug-In . SVG Version: 6.00 Build 0)  -->
<svg version="1.1" id="Capa_1" xmlns="http://www.w3.org/2000/svg" xmlns:xlink="http://www.w3.org/1999/xlink" x="0px" y="0px"
	 viewBox="0 0 512 512" style="enable-background:new 0 0 512 512;" xml:space="preserve">
<style type="text/css">
	.st0{fill:#2E001F;}
	.st1{fill:#FF26BD;}
</style>
<g>
	<rect x="10" y="10" class="st0" width="492" height="492"/>
	<path class="st1" d="M492,20v472H20V20H492 M512,0H0v512h512V0L512,0z"/>
</g>
<g>
	<g>
		<g>
			<g>
				<path class="st1" d="M427,256c0-49.1-36.4-81.1-89.5-81.1h-73.7v162.2h73.7C390.6,337.1,427,305.1,427,256z M301.4,306.3V205.7
					h34.3c32.2,0,53.3,19.2,53.3,50.3c0,31.1-21.1,50.3-53.3,50.3H301.4z"/>
			</g>
		</g>
		<g>
			<polygon class="st1" points="128,337.1 166.5,280.8 205.7,337.1 248.9,337.1 188.4,253.2 245,174.9 204.4,174.9 167.8,227.5 
				130.6,174.9 88,174.9 145,254.6 85,337.1 			"/>
		</g>
	</g>
</g>
</svg>
